<svg xmlns="http://www.w3.org/2000/svg" width="1440" height="330" viewBox="0 0 1440 330" role="img" aria-labelledby="title desc"><title id="title">Private Instance 직접 접근 불가</title><desc id="desc">Private Instance 직접 접근 불가</desc><defs><marker id="arrow" markerWidth="10" markerHeight="10" refX="8" refY="4" orient="auto"><path d="M0 0 L8 4 L0 8" fill="#526c86"/></marker><marker id="red-arrow" markerWidth="10" markerHeight="10" refX="8" refY="4" orient="auto"><path d="M0 0 L8 4 L0 8" fill="#c44242"/></marker></defs><g font-family="Malgun Gothic, Noto Sans CJK KR, Arial, sans-serif"><rect width="1440" height="330" rx="20" fill="#ffffff"/><rect x="1" y="1" width="1438" height="328" rx="20" fill="none" stroke="#dce5ef"/><text x="42" y="55" text-anchor="start" font-size="30" font-weight="700" fill="#142a45"><tspan x="42" dy="0">Private Instance 직접 접근 불가</tspan></text><rect x="45" y="110" width="610" height="180" rx="18" fill="#f1f5f9" stroke="#546579" stroke-width="2"/><rect x="63" y="126" width="28" height="4" rx="2" fill="#546579"/><text x="350" y="155" text-anchor="middle" font-size="25" font-weight="700" fill="#172b45"><tspan x="350" dy="0">Internet</tspan></text><rect x="785" y="110" width="610" height="180" rx="18" fill="#ebf8f1" stroke="#21865b" stroke-width="2"/><rect x="803" y="126" width="28" height="4" rx="2" fill="#21865b"/><text x="1090" y="155" text-anchor="middle" font-size="25" font-weight="700" fill="#172b45"><tspan x="1090" dy="0">Private Instance</tspan></text><text x="1090" y="197" text-anchor="middle" font-size="20" font-weight="400" fill="#486078"><tspan x="1090" dy="0">Public IP 없음</tspan></text><path d="M655,200 L785,200" fill="none" stroke="#c44242" stroke-width="2" stroke-dasharray="6 7"/><circle cx="720" cy="200" r="14" fill="white" stroke="#c44242" stroke-width="2"/><text x="720" y="207" text-anchor="middle" font-size="24" font-weight="700" fill="#c44242"><tspan x="720" dy="0">×</tspan></text><text x="720" y="154.8" text-anchor="middle" font-size="18" font-weight="400" fill="#c44242"><tspan x="720" dy="0">직접 접근 차단</tspan></text></g></svg>